<svg width="21" height="14" viewBox="0 0 21 14" fill="none" xmlns="http://www.w3.org/2000/svg">
<g clip-path="url(#clip0_2008_1078)">
<path d="M13.7767 3.21423L14.8865 2.54401L14.1453 1.38261C16.3175 1.81346 16.8604 3.419 17.3881 4.97917C17.5537 5.4686 17.7155 5.94585 17.9271 6.36374L8.2482 6.36374L8.2482 3.8311L6.94198 3.8311L6.94198 6.36374L4.75203 6.36374C4.46603 5.37343 3.52952 4.64496 2.42078 4.64496C1.08597 4.64496 -3.53691e-07 5.70102 -2.98368e-07 6.99912C-2.43007e-07 8.2981 1.08597 9.35492 2.42078 9.35492C3.52972 9.35492 4.46631 8.62569 4.75219 7.63447L6.94194 7.63447L6.94194 10.1679L8.24816 10.1679L8.24816 7.63447L17.9279 7.63447C17.716 8.05279 17.5539 8.53064 17.3882 9.02075C16.8604 10.5809 16.3175 12.1864 14.1453 12.6173L14.8865 11.4559L13.7767 10.7857L11.7255 14L12.8997 14C14.7458 14 16.1186 13.4801 17.0966 12.4107C17.922 11.508 18.2976 10.3977 18.629 9.41804C18.9272 8.53671 19.1846 7.77564 19.6383 7.58176L21 7L19.6383 6.41824C19.1846 6.22436 18.9271 5.46329 18.629 4.58196C18.2976 3.60235 17.922 2.49202 17.0966 1.58934C16.1186 0.519871 14.7458 2.92587e-07 12.8997 3.75352e-07L11.7255 4.27994e-07L13.7767 3.21423ZM3.53616 6.99908C3.53616 7.59744 3.03577 8.08415 2.42078 8.08415C1.80625 8.08415 1.30622 7.59736 1.30622 6.99908C1.30622 6.40168 1.8062 5.91565 2.42078 5.91565C3.03581 5.91565 3.53616 6.40164 3.53616 6.99908Z" fill="white"/>
</g>
<defs>
<clipPath id="clip0_2008_1078">
<rect width="21" height="14" fill="white"/>
</clipPath>
</defs>
</svg>
